<?xml version="1.0" encoding="UTF-8"?>
<!DOCTYPE svg PUBLIC "-//W3C//DTD SVG 1.1//EN" "http://www.w3.org/Graphics/SVG/1.1/DTD/svg11.dtd">
<!-- Creator: CorelDRAW 2021 (64-Bit) -->
<svg xmlns="http://www.w3.org/2000/svg" xml:space="preserve" width="3.61928in" height="2.5785in" version="1.1" style="shape-rendering:geometricPrecision; text-rendering:geometricPrecision; image-rendering:optimizeQuality; fill-rule:evenodd; clip-rule:evenodd"
viewBox="0 0 1657.03 1180.52"
 xmlns:xlink="http://www.w3.org/1999/xlink"
 xmlns:xodm="http://www.corel.com/coreldraw/odm/2003">
 <defs>
  <style type="text/css">
   <![CDATA[
    .fil4 {fill:#868686}
    .fil0 {fill:#F9F8F7}
    .fil1 {fill:#F9F9F9}
    .fil2 {fill:#FAFAFA}
    .fil3 {fill:#FBFBFB}
   ]]>
  </style>
 </defs>
 <g id="Layer_x0020_1">
  <metadata id="CorelCorpID_0Corel-Layer"/>
  <path class="fil0" d="M1147.49 839.95l0 -344.48c110.04,0 225.21,1.86 266.26,120.11 22.41,64.56 21.52,171.05 -7.86,236.05 -5.05,11.18 -6.58,15.7 -13.22,26.35 -10.17,16.31 -22.46,29.45 -37.68,41.45 -48.09,37.91 -156.22,43.94 -185.99,17.71 -21.18,-18.66 -21.51,-66.17 -21.51,-97.19zm30.26 -367.76l-30.26 0 0 -309.57c0,-37.13 0.32,-89.26 31.41,-105.92 27.8,-14.9 89.76,-9.73 121.29,9.09 63.38,37.83 71.95,170.04 59.46,243.82 -7.66,45.27 -10.3,69.41 -37.08,109.55 -28.18,42.23 -75.39,53.03 -144.82,53.03zm-343.32 -423.62c109.3,2.03 94.27,54.21 94.27,181.55l0 551.63c0,39.68 2.56,102.02 -6.63,130.7 -12.65,39.49 -56.4,43.87 -95.78,43.87l0 27.93c70.9,0 135.29,-2.33 207.15,-2.33 49.58,0 277.48,6.24 312.88,0.99 8.52,-1.26 15.59,-0.5 24.03,-1.57 5.06,-0.64 16.13,-2.79 21.87,-3.73 15.68,-2.58 29.25,-5.12 44.84,-8.69l39.55 -11.65c8.17,-2.83 11.43,-5.12 18,-7.6 8.5,-3.21 11.77,-3.98 19.88,-8.05 44.82,-22.51 87.97,-54.03 112.49,-99.32 3.51,-6.49 5.24,-9.27 8.68,-16.93 3.2,-7.15 4.99,-11.24 7.34,-18.27 26.37,-78.86 17.06,-161.15 -41.04,-221.46 -41.77,-43.36 -72.73,-59.43 -131.25,-80.56 -26.12,-9.43 -104.67,-24.93 -132.35,-25.92 -6.41,-0.23 -17.49,-0.97 -23.28,-4.65 14,-0.31 60.04,-12.12 73.54,-17.24 33.51,-12.71 62.68,-23.84 92.67,-44.66 41.16,-28.57 86.89,-81.06 98.99,-131.44 6.24,-25.97 6.73,-56.64 1.85,-85.36 -9.67,-56.92 -52.59,-99.24 -100.44,-127.66 -29,-17.22 -68.79,-29.12 -103.57,-36.08 -12,-2.4 -24.65,-4.87 -37.55,-6.67 -28.1,-3.92 -103.88,-4.77 -134.88,-4.77 -32.59,0 -56.67,2.33 -88.45,2.33l-186.21 0c-27.79,0.03 -63.02,-5.89 -90.77,-1.35l-11.73 -0.91 0 20.88c2.01,5.58 1.29,4.23 5.9,6.98z"/>
  <path class="fil0" d="M107.07 251.07c0,39.38 7.91,78.62 20.91,104.78 23.8,47.89 20.65,37.54 50.25,75.43 25.76,32.97 121.36,100.16 160.02,123.94 31.02,19.08 81.83,54.65 110.44,78.1 57.85,47.41 105.27,95.07 105.27,181.02 0,66.99 -28.78,113.05 -87.74,138.04 -24.87,10.54 -64.9,18.24 -96.78,13.9 -22.17,-3.02 -16.4,3.04 -48.54,-7.33 -16.89,-5.45 -27.36,-8.24 -41.97,-16.22 -11.62,-6.34 -31.61,-19.84 -40.43,-29.39 -28.43,-30.79 -42.64,-57.17 -60.86,-97.41 -20.43,-45.13 -37.98,-143.6 -37.98,-190.12l-34.91 0 0 221.12c0.01,19.41 -2.39,32.41 -2.41,48.8 -0.05,36.13 -2.25,66.23 -2.25,100.17l32.59 0c4.35,-18.67 7.12,-60.52 27.93,-60.52 20.17,0 41.77,16.32 57.4,24.06l59.48 24.32c12.13,3.3 18.96,6.91 30.29,9.28 12.61,2.64 22.42,3.95 35.71,6.18 106.34,17.86 245.75,-3 321.55,-59.84 55.3,-41.48 93.08,-95.71 100.41,-167.26 3.55,-34.69 1.44,-71.84 -6.63,-102.11 -26.33,-98.73 -99.8,-152.42 -176.91,-207.14 -15.17,-10.77 -29.35,-20.33 -45.64,-31.17l-67.47 -46.58c-8.1,-5.65 -14.37,-9.55 -22.36,-14.88 -42.66,-28.44 -95.67,-64.91 -121.95,-108.48 -42.21,-69.97 -29.5,-173.76 48.65,-210.14 60.46,-28.15 151.28,-18.43 202.41,31.23 44.48,43.2 68.85,82.18 86.47,143.96 8.6,30.13 17.64,65.14 17.64,98.74l34.91 0 5.13 -295.4c2.41,-18.85 7.87,-16.5 -33.06,-16.5 0,15.3 -7.99,58.19 -23.28,58.19 -34.4,0 -51.53,-21.17 -80.11,-33.94 -54.93,-24.54 -114.78,-43.77 -178.56,-36.26 -17.24,2.03 -33.51,1.07 -50.48,3.12 -16.33,1.97 -31.86,5.51 -47.22,8.64 -22.94,4.68 -61.91,19.46 -79.36,30.04 -39.5,23.96 -43.55,29.85 -73.47,61.53 -5.09,5.39 -7.48,9.75 -11.46,16.47 -25.43,42.98 -35.64,75.67 -35.64,129.62z"/>
  <path class="fil1" d="M1594.39 1179.6l13.97 0 0 -41.9 27.84 37.34c4.61,4.72 -3,4.56 16.39,4.56l0 -65.17 -13.97 0 0 39.57c-22.02,-16.14 -14.73,-39.57 -44.22,-39.57l0 65.17z"/>
  <path class="fil2" d="M1128.87 1149.34l-11.64 0 0 -23.28c18.5,0 27.93,-2.92 27.93,11.64 0,7.52 -8.45,11.64 -16.29,11.64zm-25.6 30.26l13.97 0 0 -18.62c10.81,0 20.61,-2.8 25.6,18.62l16.29 0c-1.9,-7.13 -7.89,-13.87 -11.64,-20.95 4.98,-7.44 11.64,-9.26 11.64,-20.95 0,-28.83 -33.3,-23.28 -55.86,-23.28l0 65.17z"/>
  <path class="fil3" d="M805.34 1149.34l-11.64 0 0 -23.28c18.5,0 27.93,-2.92 27.93,11.64 0,7.52 -8.45,11.64 -16.29,11.64zm-25.6 30.26l13.96 0 0 -18.62c10.82,0 20.61,-2.8 25.6,18.62l16.29 0c-2.55,-9.53 -8.71,-9.97 -11.64,-20.95 1.06,-1.58 21.77,-19.73 6.38,-36.64 -9.7,-10.66 -33.62,-7.59 -50.6,-7.59l0 65.17z"/>
  <path class="fil2" d="M1510.59 1167.96c-24.6,0 -34.5,-41.9 4.66,-41.9 18.26,0 25.2,41.9 -4.66,41.9zm-6.98 11.64c21.47,0 41.9,-6.72 41.9,-32.59 0,-40.85 -68.77,-47.66 -70.72,1.01 -0.65,16.12 15.09,31.58 28.83,31.58z"/>
  <path class="fil2" d="M998.53 1147.01c0,-25.22 41.9,-33.2 41.9,4.66 0,18.26 -41.9,25.2 -41.9,-4.66zm-13.97 -4.66c0,55.75 69.83,41.95 69.83,9.31 0,-46.65 -46.48,-40.94 -59.58,-29.32 -4.57,4.05 -10.25,12.3 -10.25,20.01z"/>
  <path class="fil2" d="M695.94 1167.96c-25.22,0 -33.21,-41.9 4.65,-41.9 18.26,0 25.2,41.9 -4.65,41.9zm-34.91 -25.6c0,56.41 69.83,40.95 69.83,9.31 0,-46.65 -46.48,-40.94 -59.58,-29.32 -4.57,4.05 -10.24,12.3 -10.24,20.01z"/>
  <path class="fil3" d="M297.93 1172.61c0,11.65 19.83,6.98 51.21,6.98l0 -11.64 -37.24 0c6.01,-10.69 0.24,-15.81 0,-16.29l32.59 0 0 -9.31c-39.9,0 -30.26,4.15 -30.26,-16.29l32.59 0 0 -11.64 -48.88 0 0 58.19z"/>
  <path class="fil1" d="M1235.94 1130.72l9.31 23.28 -18.62 0c2.95,-5.57 7.75,-16.59 9.31,-23.28zm-32.59 48.88l13.97 0c0.66,-7.91 1.77,-8.52 4.65,-13.97l30.26 0c1.31,5.64 2.44,9.34 4.65,13.97l13.97 0c-3.04,-13.06 -8.36,-20.68 -13.3,-33.25 -4.88,-12.4 -8.98,-21.25 -14.63,-31.92l-13.96 0c-4.24,18.17 -24.19,48.16 -25.6,65.17z"/>
  <path class="fil1" d="M130.35 1133.05c1.84,7.9 4.89,11.98 6.98,20.95l-18.62 0c4.25,-8.85 3.68,-15.12 11.64,-20.95zm-34.91 46.55c16.99,0 12.17,-1.78 18.62,-13.97l30.26 0c1.32,5.64 2.44,9.34 4.66,13.97l13.97 0c-1,-12.05 -24.49,-51.81 -25.6,-65.17l-16.29 0c-2.04,8.75 -9.06,21.88 -12.97,31.26 -4.62,11.09 -11.64,21.96 -12.64,33.92z"/>
  <path class="fil3" d="M912.41 1149.34l-11.64 0 0 -23.28c20.34,0 25.6,-2.41 25.6,13.97 0,7.16 -6.82,9.31 -13.97,9.31zm-25.6 30.26l13.97 0 0 -18.62c26.69,0 39.57,0.91 39.57,-30.26 0,-20.59 -40.67,-16.29 -53.54,-16.29l0 65.17z"/>
  <path class="fil2" d="M398.02 1133.05c0,23.04 30.02,11.95 34.91,30.26 -16.66,11.58 -19.33,-0.49 -34.91,-4.65 -1.43,6.12 -2.12,6.84 -4.66,11.64 17.08,9.04 15.37,9.31 32.59,9.31 23.29,0 30.18,-28.56 6.75,-37.01 -11.05,-3.99 -17.35,-1.62 -18.39,-14.19 11.62,-6.53 16.58,1.38 27.93,2.33 1.84,-6.89 0.95,-3.77 4.66,-9.31 -21.93,-14.68 -48.88,-9.5 -48.88,11.64z"/>
  <path class="fil3" d="M2.33 1133.05c0,22.8 33.06,10.31 34.91,32.59 -12.59,3.01 -14.4,5.19 -32.59,-6.98 -2.54,4.8 -3.23,5.52 -4.66,11.64 26.67,17.86 51.21,7.66 51.21,-4.65 0,-36.91 -30.61,-13.46 -32.59,-37.24 10.13,-5.69 16.94,-0.23 27.93,2.33 2.54,-4.8 3.23,-5.52 4.65,-11.64 -1.88,-0.44 -48.88,-17.56 -48.88,13.97z"/>
  <path class="fil2" d="M556.29 1144.68c0,23.16 19.76,34.91 25.6,34.91 14.17,0 25.92,1.8 34.91,-11.64 -9.64,-14.39 -10.9,0 -25.6,0 -29.85,0 -22.92,-41.9 -4.66,-41.9 23.18,0 9.65,3.27 25.6,6.98 2.54,-4.8 3.23,-5.52 4.65,-11.64 -15.44,-3.6 -4.32,-6.98 -30.26,-6.98 -14.27,0 -30.26,15.98 -30.26,30.26z"/>
  <path class="fil1" d="M1317.41 1126.06l13.97 0 0 53.54 13.97 0 0 -53.54 18.62 0 0 -11.64 -53.53 0c0.17,7.46 -0.76,11.64 6.98,11.64z"/>
  <polygon class="fil3" points="209.48,1179.6 251.38,1179.6 251.38,1167.96 223.45,1167.96 223.45,1114.43 209.48,1114.43 "/>
  <polygon class="fil1" points="1412.83,1179.6 1424.47,1179.6 1424.47,1114.43 1412.83,1114.43 "/>
  <path class="fil4" d="M834.43 48.57c-4.61,-2.75 -3.9,-1.4 -5.9,-6.98l-0 -20.88 11.73 0.91c-4.2,-3.79 1.82,-1.56 -4.81,-3.08 -2.04,-0.47 -6.86,-0.23 -9.15,-0.23l0 30.26 8.15 0z"/>
 </g>
</svg>
